<svg width="48" height="35" viewBox="0 0 48 35" fill="none" xmlns="http://www.w3.org/2000/svg">
<rect x="0.833496" y="0.775635" width="46" height="33" rx="2" fill="white" stroke="#D9D9D9"/>
<path fill-rule="evenodd" clip-rule="evenodd" d="M11.5413 12.9306C12.1725 12.9868 12.8037 12.5936 13.1982 12.0951C13.5861 11.5825 13.8426 10.8944 13.7768 10.1923C13.2179 10.2203 12.5276 10.5855 12.1331 11.098C11.7714 11.5404 11.4624 12.2566 11.5413 12.9306ZM19.05 21.9742V11.0278H22.8963C24.882 11.0278 26.2693 12.4883 26.2693 14.6228C26.2693 16.7573 24.8557 18.2318 22.8437 18.2318H20.6411V21.9742H19.05ZM13.7702 13.0641C13.2141 13.0299 12.7067 13.2426 12.2969 13.4145C12.0332 13.5251 11.8098 13.6187 11.6399 13.6187C11.4492 13.6187 11.2167 13.5201 10.9556 13.4093C10.6134 13.2642 10.2223 13.0982 9.81206 13.1062C8.87184 13.1202 7.99737 13.689 7.51739 14.5947C6.53115 16.4062 7.26097 19.0884 8.21434 20.5629C8.68116 21.2932 9.24004 22.0936 9.97643 22.0655C10.3004 22.0525 10.5335 21.9469 10.7746 21.8376C11.0523 21.7117 11.3407 21.581 11.7911 21.581C12.2259 21.581 12.5017 21.7083 12.7665 21.8305C13.0183 21.9467 13.2601 22.0583 13.619 22.0515C14.3817 22.0374 14.8616 21.3212 15.3285 20.591C15.8322 19.8073 16.0536 19.0424 16.0872 18.9263L16.0912 18.9129C16.0904 18.912 16.0841 18.909 16.0732 18.9036C15.9047 18.8213 14.6176 18.192 14.6052 16.5045C14.5928 15.0882 15.6262 14.3705 15.7888 14.2576C15.7987 14.2507 15.8054 14.2461 15.8084 14.2437C15.1509 13.2045 14.1252 13.0921 13.7702 13.0641ZM29.1755 22.0584C30.1749 22.0584 31.102 21.5178 31.5228 20.6612H31.5556V21.9742H33.0284V16.5255C33.0284 14.9457 31.8449 13.9276 30.0237 13.9276C28.3339 13.9276 27.0846 14.9598 27.0386 16.3781H28.472C28.5903 15.704 29.1755 15.2617 29.9776 15.2617C30.9507 15.2617 31.4965 15.7462 31.4965 16.6379V17.2417L29.5108 17.3681C27.6632 17.4875 26.6638 18.2949 26.6638 19.6992C26.6638 21.1176 27.6961 22.0584 29.1755 22.0584ZM29.6028 20.7595C28.7546 20.7595 28.2155 20.3242 28.2155 19.6571C28.2155 18.969 28.7349 18.5688 29.7277 18.5056L31.4964 18.3862V19.0041C31.4964 20.0293 30.6811 20.7595 29.6028 20.7595ZM37.9136 22.4025C37.2758 24.3194 36.546 24.9513 34.9943 24.9513C34.876 24.9513 34.4815 24.9372 34.3894 24.9092V23.5962C34.488 23.6102 34.7313 23.6242 34.8562 23.6242C35.5598 23.6242 35.9543 23.3083 36.1975 22.4868L36.3422 22.0023L33.6464 14.033H35.3099L37.1838 20.4997H37.2167L39.0905 14.033H40.708L37.9136 22.4025ZM20.641 12.4602H22.4754C23.8561 12.4602 24.6451 13.2466 24.6451 14.6298C24.6451 16.013 23.8561 16.8065 22.4688 16.8065H20.641V12.4602Z" fill="black"/>
</svg>
