<svg xmlns="http://www.w3.org/2000/svg" viewBox="0 0 164 48" fill="#30273e" overflow="visible">
<path d="M14.6188 15.3156V9.32373H13.8099V12.2076C12.8854 10.5184 11.0652 9.54772 8.66729 9.54772C4.65144 9.54772 1.32897 12.805 1.32897 16.8462C1.32897 25.8712 14.85 22.5767 14.85 29.0165C14.85 31.8631 12.269 34.0377 8.70581 34.0377C4.72848 34.0377 1.63714 31.2284 1.32897 27.2992H0.52002V34.8216H1.32897V30.7058C2.80241 33.3283 5.49891 34.8216 8.66729 34.8216C13.4247 34.8216 17.1709 31.3031 17.1709 26.9259C17.1709 17.7515 3.95805 21.2327 3.95805 14.7929C3.95805 12.3196 6.04784 10.369 8.83101 10.369C11.6816 10.369 13.6173 12.245 13.8484 15.3156H14.6188Z" fill="#30273e"/>
<path d="M45.8748 34.4483V33.6643H42.7835L32.7005 19.5061L41.7049 10.6677H44.8347V9.8837H37.4579V10.6677H40.4337L28.8772 21.9047V0H21.616V0.783976H24.2836V33.6643H21.616V34.4483H31.3137V33.6643H28.8772V21.9793L37.1497 33.6643H34.1739V34.4483H45.8748Z" fill="#30273e"/>
<path d="M55.8443 3.70524C55.8443 2.39861 54.7272 1.30664 53.3693 1.30664C52.021 1.30664 50.8943 2.39861 50.8943 3.70524C50.8943 5.0212 52.021 6.10383 53.3693 6.10383C54.7272 6.10383 55.8443 5.0212 55.8443 3.70524ZM58.4349 34.4483V33.6643H55.8443V9.88372H48.583V10.6677H51.2506V33.6643H48.583V34.4483H58.4349Z" fill="#30273e"/>
<path d="M89.6898 34.4483V33.6643H87.0992V20.8967C87.0992 19.0581 86.7911 17.2568 86.2518 15.9129C84.6627 12.133 80.7239 9.54773 76.3229 9.54773C71.9122 9.54773 67.9734 12.133 66.394 15.9129C65.8547 17.2568 65.5369 19.0581 65.5369 20.8967V33.6643H62.8789V34.4483H72.7308V33.6643H70.1402V17.9755C70.1402 13.1783 72.7308 10.3317 76.3229 10.3317C79.915 10.3317 82.5056 13.1783 82.5056 17.9755V33.6643H79.915V34.4483H89.6898Z" fill="#30273e"/>
<path d="M115.879 20.9341C115.879 17.3408 115.07 15.0169 112.951 12.7676C110.977 10.705 107.963 9.54773 105.103 9.54773C100.432 9.54773 96.2137 12.4316 94.904 16.6222C94.4417 18.0501 94.3262 19.2074 94.3262 20.8221V23.4353C94.3262 27.0379 95.1351 29.3525 97.2634 31.6017C99.228 33.6643 102.242 34.8216 105.103 34.8216C109.783 34.8216 113.991 31.9377 115.301 27.7472C115.763 26.3192 115.879 25.1619 115.879 23.5566V20.9341ZM111.285 25.3486C111.285 28.9418 110.669 30.7804 109.465 32.0871C108.348 33.3283 106.923 34.0377 105.103 34.0377C103.138 34.0377 101.51 33.179 100.509 31.8257C99.3051 30.2578 98.9198 28.5685 98.9198 25.0499V19.0208C98.9198 15.4276 99.5362 13.5889 100.74 12.2823C101.857 11.0504 103.292 10.3317 105.103 10.3317C107.077 10.3317 108.695 11.1997 109.706 12.5436C110.9 14.1116 111.285 15.8009 111.285 19.3194V25.3486Z" fill="#30273e"/>
<path d="M127.783 9.88372H120.521V10.6677H123.179V33.6643H120.521V34.4483H130.682V33.6643H127.783V13.8876C128.977 11.797 130.99 10.369 132.569 10.369C132.964 10.369 133.234 10.4437 133.311 10.481C132.068 10.6304 131.144 11.7223 131.144 12.9916C131.144 14.4942 132.299 15.6142 133.85 15.6142C135.429 15.6142 136.595 14.4196 136.595 12.8423C136.595 10.9664 135.006 9.54773 132.839 9.54773C130.836 9.54773 128.861 10.8917 127.783 12.581V9.88372Z" fill="#30273e"/>
<path d="M156.255 29.6511C155.1 32.423 152.548 34.0377 150.034 34.0377C147.829 34.0377 146.288 32.871 145.479 31.8257C143.929 29.8098 143.89 27.6352 143.89 24.8259V19.0208C143.89 15.4276 144.506 13.5889 145.71 12.2823C146.827 11.0504 148.262 10.3317 150.073 10.3317C152.047 10.3317 153.665 11.1997 154.676 12.5436C155.87 14.1116 156.255 15.8009 156.255 19.3194V29.6511ZM160.859 20.9341C160.859 17.3408 160.04 15.0169 157.921 12.7676C155.947 10.705 152.933 9.54773 150.073 9.54773C145.402 9.54773 141.184 12.4316 139.874 16.6222C139.412 18.0501 139.296 19.2074 139.296 20.8221V23.5566C139.296 26.8139 140.221 29.3898 142.08 31.4151C143.929 33.4403 146.827 34.8216 149.842 34.8216C152.586 34.8216 155.1 33.3283 156.294 31.3404V34.4483H163.517V33.6643H160.859V20.9341Z" fill="#30273e"/>
<mask id="mask0_98_2213" style="mask-type:luminance" maskUnits="userSpaceOnUse" x="0" y="43" width="164" height="2">
<path d="M148.815 43.2466H164V44.1426H148.815V43.2466ZM0 43.2466H15.1822V44.1426H0V43.2466Z" fill="#30273e"/>
</mask>
<g mask="url(#mask0_98_2213)">
<path d="M0 43.6946H164" stroke="#30273e" stroke-width="2"/>
</g>
<path d="M22.4797 41.6694V42.0801H20.4092V43.6387H22.2679V44.0494H20.4092V45.9346H19.8892V41.6694H22.4797Z" fill="#30273e"/>
<path d="M26.3896 45.9346V41.6694H27.9883C28.282 41.6694 28.53 41.7161 28.7298 41.8094C28.9272 41.9028 29.0789 42.0381 29.1824 42.2108C29.2836 42.3857 29.3365 42.5911 29.3365 42.8267C29.3365 43.0881 29.2643 43.3074 29.1247 43.48C28.9898 43.648 28.778 43.7764 28.4891 43.8627V43.928C28.6287 43.9794 28.7443 44.0634 28.8358 44.18C28.9321 44.299 29.0139 44.474 29.0861 44.7027L29.5003 45.9346H28.961L28.5276 44.628C28.4746 44.4787 28.4144 44.362 28.3446 44.2734C28.2724 44.18 28.1857 44.1147 28.0846 44.0774C27.9811 44.04 27.8486 44.0214 27.6897 44.0214H26.9097V45.9346H26.3896ZM27.9787 43.592C28.2531 43.592 28.4554 43.5337 28.5854 43.4147C28.7202 43.2911 28.7876 43.1021 28.7876 42.8454C28.7876 42.5911 28.7202 42.4044 28.5854 42.2854C28.4554 42.1618 28.2531 42.0988 27.9787 42.0988H26.9097V43.592H27.9787Z" fill="#30273e"/>
<path d="M33.9968 43.928V45.524H36.2407V45.9346H33.4768V41.6694H36.1926V42.0801H33.9968V43.508H35.9325V43.928H33.9968Z" fill="#30273e"/>
<path d="M40.6876 45.9346H40.2061V41.6694H40.9765L42.3055 45.2813H42.3729L43.7019 41.6694H44.4434V45.9346H43.9523V42.4534L43.8752 42.4441L42.5751 45.9346H42.0647L40.7646 42.4441L40.6876 42.4534V45.9346Z" fill="#30273e"/>
<path d="M51.5619 41.6694V42.0988H50.1751V45.9346H49.6647V42.0988H48.2876V41.6694H51.5619Z" fill="#30273e"/>
<path d="M55.9141 45.9346H55.394V41.6694H55.9141V45.9346Z" fill="#30273e"/>
<path d="M61.6833 41.6694C62.1263 41.6694 62.5067 41.7488 62.8294 41.9028C63.1496 42.0591 63.3975 42.2947 63.5709 42.6121C63.7442 42.9294 63.8309 43.3284 63.8309 43.8067C63.8309 44.2804 63.7442 44.6747 63.5709 44.992C63.3975 45.3093 63.1496 45.5473 62.8294 45.7013C62.5067 45.8576 62.1263 45.9346 61.6833 45.9346H60.2581V41.6694H61.6833ZM61.6352 45.5053C62.0011 45.5053 62.3021 45.454 62.5404 45.3467C62.7836 45.2347 62.9666 45.055 63.0894 44.8053C63.217 44.551 63.282 44.2174 63.282 43.8067C63.282 43.3914 63.217 43.0577 63.0894 42.8081C62.9666 42.5537 62.7836 42.3741 62.5404 42.2667C62.3021 42.1548 62.0011 42.0988 61.6352 42.0988H60.7781V45.5053H61.6352Z" fill="#30273e"/>
<path d="M68.4671 43.928V45.524H70.7109V45.9346H67.947V41.6694H70.6628V42.0801H68.4671V43.508H70.4028V43.928H68.4671Z" fill="#30273e"/>
<path d="M75.1867 45.9346H74.6763V41.6694H75.3119L77.4594 44.9267L77.5365 44.9173V41.6694H78.0373V45.9346H77.498L75.2541 42.4534L75.1867 42.4627V45.9346Z" fill="#30273e"/>
<path d="M83.6414 46C83.3646 46 83.1142 45.9627 82.8903 45.888C82.6712 45.8133 82.4882 45.7177 82.3413 45.5987C82.1993 45.482 82.091 45.3514 82.0139 45.2067L82.3028 44.88H82.3702C82.6447 45.3234 83.0684 45.5427 83.6414 45.5427C83.9689 45.5427 84.212 45.4773 84.3734 45.3467C84.5395 45.2114 84.6237 45.0247 84.6237 44.7867C84.6237 44.6444 84.5948 44.5254 84.5371 44.432C84.4841 44.334 84.3974 44.2501 84.277 44.1801C84.1543 44.1124 83.9881 44.0494 83.7763 43.9934L83.2659 43.8721C82.8806 43.7857 82.5941 43.6457 82.4088 43.4521C82.2282 43.2537 82.1391 43.0041 82.1391 42.7054C82.1391 42.4954 82.1921 42.3088 82.3028 42.1454C82.4184 41.9775 82.5845 41.8468 82.8036 41.7535C83.0203 41.6601 83.2803 41.6135 83.5837 41.6135C83.9111 41.6135 84.1856 41.6601 84.4119 41.7535C84.643 41.8421 84.8284 41.9751 84.9704 42.1548L84.7104 42.4814H84.6334C84.5106 42.3321 84.3637 42.2248 84.1904 42.1548C84.017 42.0801 83.8148 42.0428 83.5837 42.0428C83.2755 42.0428 83.0444 42.1034 82.8903 42.2201C82.7362 42.3321 82.6591 42.4908 82.6591 42.6961C82.6591 42.8898 82.7121 43.0414 82.8229 43.1534C82.9384 43.2654 83.1334 43.3541 83.4103 43.4147L83.9304 43.5361C84.3589 43.6364 84.6719 43.7881 84.8645 43.9934C85.0571 44.1941 85.1534 44.4484 85.1534 44.7587C85.1534 45.0014 85.0956 45.216 84.9801 45.4027C84.8693 45.5847 84.7008 45.7293 84.4697 45.8413C84.2433 45.9463 83.9689 46 83.6414 46Z" fill="#30273e"/>
<path d="M96.4899 43.396V41.6694H97.01V45.9346H96.4899V43.8254H94.2075V45.9346H93.6875V41.6694H94.2075V43.396H96.4899Z" fill="#30273e"/>
<path d="M102.961 46C102.421 46 102.01 45.867 101.728 45.5986C101.451 45.3327 101.314 44.936 101.314 44.4134V41.6694H101.834V44.4134C101.834 44.7867 101.925 45.0667 102.113 45.2533C102.298 45.44 102.58 45.5333 102.961 45.5333C103.712 45.5333 104.087 45.16 104.087 44.4134V41.6694H104.598V44.4134C104.598 44.936 104.458 45.3327 104.184 45.5986C103.907 45.867 103.5 46 102.961 46Z" fill="#30273e"/>
<path d="M110.325 41.6694C110.768 41.6694 111.148 41.7488 111.471 41.9028C111.791 42.0591 112.039 42.2947 112.212 42.6121C112.386 42.9294 112.473 43.3284 112.473 43.8067C112.473 44.2804 112.386 44.6747 112.212 44.992C112.039 45.3093 111.791 45.5473 111.471 45.7013C111.148 45.8576 110.768 45.9346 110.325 45.9346H108.9V41.6694H110.325ZM110.277 45.5053C110.643 45.5053 110.944 45.454 111.182 45.3467C111.425 45.2347 111.608 45.055 111.731 44.8053C111.859 44.551 111.924 44.2174 111.924 43.8067C111.924 43.3914 111.859 43.0577 111.731 42.8081C111.608 42.5537 111.425 42.3741 111.182 42.2667C110.944 42.1548 110.643 42.0988 110.277 42.0988H109.42V45.5053H110.277Z" fill="#30273e"/>
<path d="M118.168 41.6694C118.469 41.6694 118.726 41.7231 118.938 41.8281C119.155 41.9354 119.323 42.0871 119.439 42.2854C119.555 42.4791 119.612 42.7054 119.612 42.9667C119.612 43.2351 119.555 43.466 119.439 43.6574C119.323 43.851 119.155 44.0004 118.938 44.1054C118.726 44.2127 118.469 44.264 118.168 44.264H117.108V45.9346H116.588V41.6694H118.168ZM118.148 43.8347C118.758 43.8347 119.063 43.5454 119.063 42.9667C119.063 42.3881 118.758 42.0988 118.148 42.0988H117.108V43.8347H118.148Z" fill="#30273e"/>
<path d="M124.132 41.6694V45.524H126.251V45.9346H123.612V41.6694H124.132Z" fill="#30273e"/>
<path d="M130.633 43.928V45.524H132.877V45.9346H130.113V41.6694H132.829V42.0801H130.633V43.508H132.569V43.928H130.633Z" fill="#30273e"/>
<path d="M137.362 45.9346H136.842V41.6694H137.362V45.9346Z" fill="#30273e"/>
<path d="M142.226 43.928V45.524H144.47V45.9346H141.706V41.6694H144.422V42.0801H142.226V43.508H144.162V43.928H142.226Z" fill="#30273e"/>
</svg>