<svg width="47" height="35" viewBox="0 0 47 35" fill="none" xmlns="http://www.w3.org/2000/svg">
<rect x="0.5" y="0.775635" width="46" height="33" rx="2" fill="#FEB4C7" stroke="#D9D9D9"/>
<path d="M18.856 15.6399C19.4903 15.6399 20.0786 15.8516 20.5659 16.2122V15.8118H22.2905V22.0608H20.5659V21.6614C20.0786 22.0218 19.4903 22.2336 18.856 22.2336C17.1769 22.2336 15.8159 20.7578 15.8159 18.9368C15.8159 17.1157 17.1769 15.6399 18.856 15.6399ZM37.0542 15.6399C37.6886 15.6399 38.2769 15.8517 38.7642 16.2122V15.8118H40.4897V22.0608H38.7642V21.6614C38.2768 22.0218 37.6887 22.2336 37.0542 22.2336C35.3753 22.2335 34.0142 20.7577 34.0142 18.9368C34.0142 17.1158 35.3753 15.6401 37.0542 15.6399ZM42.3208 19.844C42.9186 19.8441 43.4028 20.3704 43.4028 21.0188C43.4026 21.6669 42.9184 22.1926 42.3208 22.1926C41.7231 22.1926 41.238 21.6669 41.2378 21.0188C41.2378 20.3703 41.723 19.844 42.3208 19.844ZM7.28369 13.0256V22.0637H5.37158V13.0256H7.28369ZM12.0591 13.0256C12.0591 14.9823 11.3557 16.8026 10.103 18.1555L12.7456 22.0637H10.3843L7.51221 17.8157L8.25342 17.2141C9.48267 16.2154 10.188 14.6888 10.188 13.0256H12.0591ZM15.1089 22.0608H13.3032V13.0276H15.1089V22.0608ZM24.9595 16.6262C25.3053 16.138 25.9494 15.8128 26.6499 15.8127V17.6311C26.643 17.631 26.6363 17.6301 26.6294 17.6301C25.9469 17.6302 24.9634 18.1595 24.9634 19.1438V22.0608H23.1929V15.8118H24.9595V16.6262ZM30.9487 15.6438C32.3383 15.6438 33.4046 16.6331 33.4048 18.0872V22.0608H31.6821V18.7649C31.6821 17.8535 31.2459 17.3616 30.4878 17.3616C29.7804 17.3616 29.1929 17.8273 29.1929 18.7776V22.0608H27.4546V15.8127H29.1714V16.5168C29.6073 15.8768 30.2597 15.6439 30.9487 15.6438ZM18.9976 17.3293C18.1344 17.3293 17.4342 18.0489 17.4341 18.9368C17.4341 19.8247 18.1343 20.5452 18.9976 20.5452C19.8608 20.5451 20.5601 19.8246 20.5601 18.9368C20.5599 18.049 19.8607 17.3294 18.9976 17.3293ZM37.1958 17.3293C36.3327 17.3295 35.6334 18.0491 35.6333 18.9368C35.6333 19.8246 36.3327 20.545 37.1958 20.5452C38.0591 20.5452 38.7593 19.8247 38.7593 18.9368C38.7592 18.0489 38.059 17.3293 37.1958 17.3293Z" fill="#17120F"/>
</svg>
