<svg width="48" height="35" viewBox="0 0 48 35" fill="none" xmlns="http://www.w3.org/2000/svg">
<rect x="1.1665" y="0.775635" width="46" height="33" rx="2" fill="white" stroke="#D9D9D9"/>
<path d="M31.2666 6.63464C36.9384 6.6349 41.5361 11.3377 41.5361 17.1385C41.536 22.9392 36.9383 27.6412 31.2666 27.6415C28.7237 27.6415 26.3981 26.6944 24.6045 25.1288C22.8109 26.6944 20.4853 27.6415 17.9424 27.6415C12.2707 27.6412 7.67302 22.9392 7.67285 17.1385C7.67285 11.3377 12.2706 6.6349 17.9424 6.63464C20.485 6.63464 22.811 7.58107 24.6045 9.14636C26.398 7.58108 28.724 6.63464 31.2666 6.63464Z" fill="#ED0006"/>
<path d="M31.2666 6.63464C36.9383 6.63491 41.5361 11.3377 41.5361 17.1385C41.536 22.9392 36.9383 27.6412 31.2666 27.6415C28.7237 27.6415 26.3981 26.6944 24.6045 25.1288C26.8115 23.2023 28.2128 20.3387 28.2129 17.1385C28.2129 13.938 26.812 11.0729 24.6045 9.14636C26.398 7.58108 28.724 6.63464 31.2666 6.63464Z" fill="#F9A000"/>
<path d="M24.6035 9.14697C26.8111 11.0735 28.2128 13.9376 28.2129 17.1382C28.2129 20.3388 26.811 23.2029 24.6035 25.1294C22.3966 23.2029 20.9961 20.3383 20.9961 17.1382C20.9961 13.9381 22.3966 11.0735 24.6035 9.14697Z" fill="#FF5E00"/>
</svg>
