<svg width="19" height="19" viewBox="0 0 19 19" fill="none" xmlns="http://www.w3.org/2000/svg">
<path d="M13.68 9.5C13.68 9.60078 13.64 9.69743 13.5687 9.7687C13.4974 9.83996 13.4008 9.88 13.3 9.88H5.7C5.59922 9.88 5.50257 9.83996 5.4313 9.7687C5.36004 9.69743 5.32 9.60078 5.32 9.5C5.32 9.39922 5.36004 9.30256 5.4313 9.2313C5.50257 9.16003 5.59922 9.12 5.7 9.12H13.3C13.4008 9.12 13.4974 9.16003 13.5687 9.2313C13.64 9.30256 13.68 9.39922 13.68 9.5ZM19 9.5C19 11.3789 18.4428 13.2156 17.399 14.7779C16.3551 16.3402 14.8714 17.5578 13.1355 18.2769C11.3996 18.9959 9.48946 19.184 7.64664 18.8175C5.80383 18.4509 4.11109 17.5461 2.78249 16.2175C1.45389 14.8889 0.549104 13.1962 0.182544 11.3534C-0.184015 9.51054 0.00411605 7.6004 0.723148 5.86451C1.44218 4.12861 2.65982 2.64491 4.22209 1.60104C5.78435 0.557165 7.62108 0 9.5 0C12.0187 0.00276602 14.4335 1.00454 16.2145 2.78554C17.9955 4.56654 18.9972 6.98129 19 9.5ZM18.24 9.5C18.24 7.77139 17.7274 6.0816 16.767 4.64431C15.8067 3.20703 14.4417 2.0868 12.8447 1.42529C11.2476 0.763783 9.49031 0.590702 7.79491 0.927936C6.09952 1.26517 4.5422 2.09758 3.31989 3.31989C2.09758 4.5422 1.26518 6.09951 0.927941 7.79491C0.590706 9.4903 0.763787 11.2476 1.4253 12.8447C2.08681 14.4417 3.20703 15.8067 4.64432 16.767C6.0816 17.7274 7.77139 18.24 9.5 18.24C11.8172 18.2375 14.0388 17.3159 15.6773 15.6773C17.3159 14.0388 18.2375 11.8172 18.24 9.5Z" fill="white"/>
</svg>
