<svg width="101" height="42" viewBox="0 0 101 42" fill="none" xmlns="http://www.w3.org/2000/svg">
<g clip-path="url(#clip0_422_490)">
<path d="M88.2853 0.775391H11.7621C5.27914 0.775391 0.0236816 6.03085 0.0236816 12.5138V29.4864C0.0236816 35.9693 5.27914 41.2248 11.7621 41.2248H88.2853C94.7682 41.2248 100.024 35.9693 100.024 29.4864V12.5138C100.024 6.03085 94.7682 0.775391 88.2853 0.775391Z" fill="#F5E8DA"/>
<path d="M80.1008 18.4987C79.1699 17.8644 78.0837 17.496 76.959 17.433C75.8343 17.3701 74.7138 17.615 73.718 18.1415C72.7221 18.668 71.8887 19.4561 71.3074 20.4209C70.7261 21.3858 70.4189 22.4909 70.4189 23.6173C70.4189 24.7438 70.7261 25.8489 71.3074 26.8138C71.8887 27.7786 72.7221 28.5667 73.718 29.0932C74.7138 29.6196 75.8343 29.8646 76.959 29.8017C78.0837 29.7387 79.1699 29.3703 80.1008 28.736V29.486H83.6153V17.7479H80.1008V18.4987ZM76.9044 26.6375C76.3139 26.6061 75.7456 26.4023 75.2697 26.0513C74.7939 25.7003 74.4314 25.2175 74.227 24.6626C74.0227 24.1077 73.9855 23.5051 74.12 22.9293C74.2546 22.3535 74.555 21.8298 74.9841 21.4229C75.4131 21.016 75.9521 20.7439 76.5342 20.6401C77.1163 20.5363 77.7161 20.6055 78.2594 20.839C78.8026 21.0725 79.2655 21.4602 79.5907 21.954C79.916 22.4478 80.0893 23.0262 80.0893 23.6175C80.0668 24.4401 79.7188 25.2202 79.1216 25.7864C78.5245 26.3526 77.727 26.6587 76.9044 26.6375Z" fill="#30273E"/>
<path d="M31.9043 12.5171H28.2263V29.4865H31.9043V12.5171Z" fill="#30273E"/>
<path d="M64.1779 17.4322C63.4869 17.3914 62.7963 17.5192 62.1657 17.8046C61.535 18.09 60.9832 18.5245 60.5579 19.0705V17.7486H57.0579V29.4863H60.6V23.3177C60.5727 22.9634 60.6222 22.6073 60.7448 22.2738C60.8675 21.9402 61.0605 21.637 61.3109 21.3847C61.5612 21.1324 61.8629 20.937 62.1955 20.8117C62.528 20.6864 62.8837 20.6342 63.2383 20.6586C64.783 20.6586 65.6708 21.5814 65.6708 23.2934V29.4863H69.1815V22.0217C69.1814 19.2899 67.0094 17.4322 64.1779 17.4322Z" fill="#30273E"/>
<path d="M43.0236 18.4987C42.0928 17.8644 41.0065 17.496 39.8819 17.433C38.7572 17.3701 37.6366 17.615 36.6408 18.1415C35.645 18.668 34.8116 19.4561 34.2303 20.4209C33.649 21.3858 33.3418 22.4909 33.3418 23.6173C33.3418 24.7438 33.649 25.8489 34.2303 26.8138C34.8116 27.7786 35.645 28.5667 36.6408 29.0932C37.6366 29.6196 38.7572 29.8646 39.8819 29.8017C41.0065 29.7387 42.0928 29.3703 43.0236 28.736V29.486H46.5381V17.7479H43.0236V18.4987ZM39.8271 26.6375C39.2366 26.6062 38.6683 26.4024 38.1924 26.0515C37.7164 25.7005 37.3539 25.2177 37.1495 24.6628C36.9451 24.108 36.9078 23.5053 37.0423 22.9295C37.1768 22.3537 37.4772 21.8299 37.9063 21.423C38.3353 21.0161 38.8743 20.7439 39.4564 20.6401C40.0386 20.5363 40.6384 20.6054 41.1816 20.8389C41.7249 21.0725 42.1878 21.4601 42.5131 21.954C42.8383 22.4478 43.0116 23.0262 43.0116 23.6175C42.9892 24.4401 42.6412 25.2201 42.0441 25.7863C41.447 26.3525 40.6497 26.6587 39.8271 26.6375Z" fill="#30273E"/>
<path d="M51.975 19.2768V17.7479H48.3767V29.4862H51.9827V24.0062C51.9827 22.1571 53.9869 21.1632 55.3776 21.1632C55.3916 21.1632 55.4052 21.1646 55.4193 21.1647V17.7486C54.7677 17.7312 54.1204 17.8593 53.5245 18.1236C52.9287 18.388 52.3993 18.782 51.975 19.2768Z" fill="#30273E"/>
<path d="M87.3467 25.3228C86.9104 25.3228 86.4839 25.4522 86.1212 25.6946C85.7584 25.937 85.4757 26.2815 85.3088 26.6846C85.1418 27.0876 85.0981 27.5312 85.1833 27.9591C85.2684 28.387 85.4785 28.78 85.787 29.0885C86.0955 29.397 86.4886 29.6071 86.9165 29.6922C87.3444 29.7773 87.7879 29.7336 88.191 29.5666C88.594 29.3997 88.9385 29.1169 89.1809 28.7542C89.4233 28.3914 89.5527 27.9649 89.5527 27.5287C89.5527 27.239 89.4957 26.9521 89.3848 26.6844C89.2739 26.4168 89.1114 26.1736 88.9066 25.9688C88.7017 25.7639 88.4585 25.6014 88.1909 25.4906C87.9232 25.3797 87.6364 25.3227 87.3467 25.3228Z" fill="#30273E"/>
<path d="M25.6911 12.5137H21.8794C21.8853 14.0423 21.5317 15.5508 20.847 16.9176C20.1624 18.2843 19.166 19.4709 17.9382 20.3815L16.4282 21.5125L22.2795 29.4917H27.0901L21.7064 22.1497C22.9761 20.8878 23.9822 19.386 24.6663 17.7318C25.3504 16.0775 25.6987 14.3038 25.6911 12.5137Z" fill="#30273E"/>
<path d="M15.9625 12.5137H12.144V29.491H15.9625V12.5137Z" fill="#30273E"/>
</g>
<defs>
<clipPath id="clip0_422_490">
<rect width="100" height="40.4494" fill="white" transform="translate(0.0236816 0.775391)"/>
</clipPath>
</defs>
</svg>
