<svg width="60" height="38" viewBox="0 0 60 38" fill="none" xmlns="http://www.w3.org/2000/svg">
<g clip-path="url(#clip0_422_486)">
<path opacity="0.07" d="M54.3658 0H4.68158C2.0421 0 0.0236816 2.05833 0.0236816 4.75V33.25C0.0236816 35.9417 2.19737 38 4.68158 38H54.3658C57.0053 38 59.0237 35.9417 59.0237 33.25V4.75C59.0237 2.05833 56.85 0 54.3658 0Z" fill="#30273E"/>
<path d="M54.3659 1.5835C56.0738 1.5835 57.4712 3.0085 57.4712 4.75016V33.2502C57.4712 34.9918 56.0738 36.4168 54.3659 36.4168H4.68168C2.97378 36.4168 1.57642 34.9918 1.57642 33.2502V4.75016C1.57642 3.0085 2.97378 1.5835 4.68168 1.5835H54.3659Z" fill="#F5E8DA"/>
<path d="M43.9632 15.9915H43.4974C42.8763 17.5748 42.4105 18.3665 41.9448 20.7415H44.8948C44.429 18.3665 44.429 17.2582 43.9632 15.9915ZM48.4658 25.3332H45.8263C45.6711 25.3332 45.6711 25.3332 45.5158 25.1748L45.2053 23.7498L45.05 23.4332H41.3237C41.1684 23.4332 41.0132 23.4332 41.0132 23.7498L40.5474 25.1748C40.5474 25.3332 40.3921 25.3332 40.3921 25.3332H37.1316L37.4421 24.5415L41.9448 13.7748C41.9448 12.9832 42.4105 12.6665 43.1869 12.6665H45.5158C45.6711 12.6665 45.8263 12.6665 45.8263 12.9832L48 23.2748C48.1553 23.9082 48.3105 24.3832 48.3105 25.0165C48.4658 25.1748 48.4658 25.1748 48.4658 25.3332ZM27.6605 24.8582L28.2816 22.0082C28.4369 22.0082 28.5921 22.1665 28.5921 22.1665C29.679 22.6415 30.7658 22.9582 31.8527 22.7998C32.1632 22.7998 32.629 22.6415 32.9395 22.4832C33.7158 22.1665 33.7158 21.3748 33.0948 20.7415C32.7842 20.4248 32.3184 20.2665 31.8527 19.9498C31.2316 19.6332 30.6105 19.3165 30.1448 18.8415C28.2816 17.2582 28.9027 15.0415 29.9895 13.9332C30.9211 13.2998 31.3869 12.6665 32.629 12.6665C34.4921 12.6665 36.5105 12.6665 37.4421 12.9832H37.5974C37.4421 13.9332 37.2869 14.7248 36.9763 15.6748C36.2 15.3582 35.4237 15.0415 34.6474 15.0415C34.1816 15.0415 33.7158 15.0415 33.25 15.1998C32.9395 15.1998 32.7842 15.3582 32.629 15.5165C32.3184 15.8332 32.3184 16.3082 32.629 16.6248L33.4053 17.2582C34.0263 17.5748 34.6474 17.8915 35.1132 18.2082C35.8895 18.6832 36.6658 19.4748 36.8211 20.4248C37.1316 21.8498 36.6658 23.1165 35.4237 24.0665C34.6474 24.6998 34.3369 25.0165 33.25 25.0165C31.0763 25.0165 29.3684 25.1748 27.9711 24.6998C27.8158 25.0165 27.8158 25.0165 27.6605 24.8582ZM22.2263 25.3332C22.3816 24.2248 22.3816 24.2248 22.5369 23.7498C23.3132 20.2665 24.0895 16.6248 24.7105 13.1415C24.8658 12.8248 24.8658 12.6665 25.1763 12.6665H27.9711C27.6605 14.5665 27.35 15.9915 26.8842 17.7332C26.4184 20.1082 25.9527 22.4832 25.3316 24.8582C25.3316 25.1748 25.1763 25.1748 24.8658 25.1748M7.78687 12.9832C7.78687 12.8248 8.09739 12.6665 8.25265 12.6665H13.5316C14.3079 12.6665 14.929 13.1415 15.0842 13.9332L16.4816 20.8998C16.4816 21.0582 16.4816 21.0582 16.6369 21.2165C16.6369 21.0582 16.7921 21.0582 16.7921 21.0582L20.0527 12.9832C19.8974 12.8248 20.0527 12.6665 20.2079 12.6665H23.4684C23.4684 12.8248 23.4684 12.8248 23.3132 12.9832L18.5 24.5415C18.3448 24.8582 18.3448 25.0165 18.1895 25.1748C18.0342 25.3332 17.7237 25.1748 17.4132 25.1748H15.0842C14.929 25.1748 14.7737 25.1748 14.7737 24.8582L12.2895 15.0415C11.979 14.7248 11.5132 14.2498 10.8921 14.0915C9.96055 13.6165 8.25265 13.2998 7.94213 13.2998L7.78687 12.9832Z" fill="#30273E"/>
</g>
<defs>
<clipPath id="clip0_422_486">
<rect width="59" height="38" fill="white" transform="translate(0.0236816)"/>
</clipPath>
</defs>
</svg>
