<svg width="65" height="42" viewBox="0 0 65 42" fill="none" xmlns="http://www.w3.org/2000/svg">
<path d="M27.3664 9.89551H42.9717V37.9386H27.3664V9.89551Z" fill="#30273E"/>
<path d="M41.9796 23.9171C41.982 21.2164 41.37 18.5504 40.1899 16.1212C39.0097 13.6919 37.2924 11.563 35.1678 9.89556C37.7988 7.82756 40.9585 6.5415 44.2858 6.18438C47.6132 5.82725 50.9738 6.41346 53.9837 7.87602C56.9936 9.33859 59.5313 11.6185 61.3068 14.4551C63.0822 17.2918 64.0237 20.5707 64.0237 23.9171C64.0237 27.2635 63.0822 30.5425 61.3068 33.3791C59.5313 36.2157 56.9936 38.4956 53.9837 39.9582C50.9738 41.4208 47.6132 42.007 44.2858 41.6499C40.9585 41.2927 37.7988 40.0067 35.1678 37.9387C37.2924 36.2712 39.0097 34.1423 40.1899 31.713C41.37 29.2838 41.982 26.6179 41.9796 23.9171Z" fill="#F5E8DA"/>
<path d="M6.31371 23.9171C6.31359 27.2635 7.255 30.5424 9.03032 33.379C10.8057 36.2157 13.3433 38.4956 16.3531 39.9582C19.363 41.4207 22.7236 42.007 26.0509 41.6498C29.3781 41.2927 32.5378 40.0067 35.1687 37.9387C33.046 36.2695 31.33 34.1403 30.15 31.7114C28.9701 29.2825 28.357 26.6174 28.357 23.9171C28.357 21.2168 28.9701 18.5517 30.15 16.1228C31.33 13.6939 33.046 11.5647 35.1687 9.89556C32.5378 7.82755 29.3781 6.54149 26.0509 6.18437C22.7236 5.82725 19.363 6.41349 16.3531 7.87607C13.3433 9.33864 10.8057 11.6185 9.03032 14.4552C7.255 17.2918 6.31359 20.5707 6.31371 23.9171Z" fill="#F5E8DA"/>
<path d="M8.0157 34.9681V34.394H7.7842V34.277H8.37378V34.394H8.14218V34.9681H8.0157ZM6.87107 34.9681V34.2759H7.05178L7.25965 34.752L7.46757 34.2759H7.64841V34.9681H7.52079V34.4459L7.32585 34.8961H7.19352L6.99858 34.4448V34.9681H6.87107Z" fill="#F5E8DA"/>
</svg>
