<svg width="113" height="46" viewBox="0 0 113 46" fill="none" xmlns="http://www.w3.org/2000/svg">
<path d="M19.9924 15.4775L23.486 25.6213L26.9111 15.4775H30.9527L24.9245 30.5229H21.9105L15.8823 15.4775H19.9924Z" fill="#F5E8DA"/>
<path d="M40.0634 28.1402C42.5979 28.1402 44.0365 26.9147 45.4065 25.1447C46.16 24.1916 47.119 23.9874 47.8041 24.532C48.4891 25.0766 48.5576 26.0978 47.8041 27.0509C45.8175 29.6379 43.2829 31.2037 40.0634 31.2037C36.5698 31.2037 33.4872 29.2975 31.3637 25.9616C30.7472 25.0766 30.8842 24.1235 31.5692 23.647C32.2542 23.1704 33.2817 23.3747 33.8982 24.3278C35.4053 26.5743 37.4603 28.1402 40.0634 28.1402ZM44.79 19.7665C44.79 20.9919 43.831 21.8088 42.7349 21.8088C41.6389 21.8088 40.6799 20.9919 40.6799 19.7665C40.6799 18.5411 41.6389 17.7241 42.7349 17.7241C43.831 17.7241 44.79 18.6091 44.79 19.7665Z" fill="#F5E8DA"/>
<path d="M54.4487 15.4773V17.5197C55.4763 16.09 57.0518 15.0688 59.3808 15.0688C62.3264 15.0688 65.7515 17.5197 65.7515 22.7617C65.7515 28.2761 62.4634 30.9312 59.0383 30.9312C57.2573 30.9312 55.6133 30.2504 54.3802 28.5484V35.7648H50.6812V15.4773H54.4487ZM54.4487 22.966C54.4487 26.0295 56.2298 27.6634 58.2163 27.6634C60.1344 27.6634 62.0524 26.1657 62.0524 22.966C62.0524 19.8344 60.1344 18.3366 58.2163 18.3366C56.2983 18.3366 54.4487 19.7663 54.4487 22.966Z" fill="#F5E8DA"/>
<path d="M72.259 15.4773V17.5197C73.2866 16.09 74.8621 15.0688 77.1911 15.0688C80.1367 15.0688 83.5618 17.5197 83.5618 22.7617C83.5618 28.2761 80.2737 30.9312 76.8486 30.9312C75.0676 30.9312 73.4236 30.2504 72.1905 28.5484V35.7648H68.4915V15.4773H72.259ZM72.259 22.966C72.259 26.0295 74.0401 27.6634 76.0266 27.6634C77.9447 27.6634 79.8627 26.1657 79.8627 22.966C79.8627 19.8344 77.9447 18.3366 76.0266 18.3366C74.0401 18.3366 72.259 19.7663 72.259 22.966Z" fill="#F5E8DA"/>
<path d="M91.4396 15.0688C94.5222 15.0688 96.7142 16.4985 97.6732 20.0386L94.3167 20.5832C94.2482 18.8132 93.1521 18.2005 91.5081 18.2005C90.2751 18.2005 89.316 18.7451 89.316 19.6301C89.316 20.3109 89.7956 20.9917 91.2341 21.264L93.7686 21.7406C96.2347 22.2171 97.6047 23.851 97.6047 26.0295C97.6047 29.2973 94.6592 30.9312 91.8506 30.9312C88.905 30.9312 85.617 29.4334 85.1375 25.7572L88.494 25.2126C88.6995 27.1188 89.8641 27.7996 91.7821 27.7996C93.2206 27.7996 94.1797 27.2549 94.1797 26.3699C94.1797 25.553 93.7001 24.9403 92.1246 24.6679L89.7956 24.2595C87.3295 23.7829 85.8225 22.081 85.8225 19.9024C85.891 16.4985 88.9735 15.0688 91.4396 15.0688Z" fill="#F5E8DA"/>
</svg>
