<svg width="19" height="19" viewBox="0 0 19 19" fill="none" xmlns="http://www.w3.org/2000/svg">
<path d="M9.625 0.25C7.7708 0.25 5.95824 0.799834 4.41653 1.82997C2.87482 2.86011 1.67321 4.32429 0.963633 6.03734C0.254062 7.7504 0.0684058 9.6354 0.430142 11.454C0.791879 13.2725 1.68476 14.943 2.99588 16.2541C4.307 17.5652 5.97746 18.4581 7.79603 18.8199C9.6146 19.1816 11.4996 18.9959 13.2127 18.2864C14.9257 17.5768 16.3899 16.3752 17.42 14.8335C18.4502 13.2918 19 11.4792 19 9.625C18.9973 7.13943 18.0087 4.75645 16.2511 2.99889C14.4936 1.24133 12.1106 0.25273 9.625 0.25ZM9.625 18.25C7.91914 18.25 6.25158 17.7442 4.83321 16.7964C3.41484 15.8487 2.30935 14.5017 1.65654 12.9256C1.00374 11.3496 0.832934 9.61543 1.16573 7.94235C1.49853 6.26926 2.31998 4.73243 3.52621 3.5262C4.73244 2.31998 6.26926 1.49852 7.94235 1.16573C9.61544 0.832929 11.3496 1.00373 12.9256 1.65654C14.5017 2.30934 15.8487 3.41483 16.7964 4.83321C17.7442 6.25158 18.25 7.91914 18.25 9.625C18.2475 11.9117 17.338 14.1041 15.7211 15.7211C14.1041 17.338 11.9117 18.2475 9.625 18.25ZM13.75 9.625C13.75 9.72446 13.7105 9.81984 13.6402 9.89017C13.5698 9.96049 13.4745 10 13.375 10H10V13.375C10 13.4745 9.9605 13.5698 9.89017 13.6402C9.81984 13.7105 9.72446 13.75 9.625 13.75C9.52555 13.75 9.43017 13.7105 9.35984 13.6402C9.28951 13.5698 9.25 13.4745 9.25 13.375V10H5.875C5.77555 10 5.68017 9.96049 5.60984 9.89017C5.53951 9.81984 5.5 9.72446 5.5 9.625C5.5 9.52554 5.53951 9.43016 5.60984 9.35983C5.68017 9.28951 5.77555 9.25 5.875 9.25H9.25V5.875C9.25 5.77554 9.28951 5.68016 9.35984 5.60983C9.43017 5.53951 9.52555 5.5 9.625 5.5C9.72446 5.5 9.81984 5.53951 9.89017 5.60983C9.9605 5.68016 10 5.77554 10 5.875V9.25H13.375C13.4745 9.25 13.5698 9.28951 13.6402 9.35983C13.7105 9.43016 13.75 9.52554 13.75 9.625Z" fill="white"/>
</svg>
