<svg xmlns="http://www.w3.org/2000/svg" width="370" height="16" viewBox="0 0 370 16" fill="none">
<path d="M0.166667 8C0.166667 10.9455 2.55448 13.3333 5.5 13.3333C8.44552 13.3333 10.8333 10.9455 10.8333 8C10.8333 5.05448 8.44552 2.66667 5.5 2.66667C2.55448 2.66667 0.166667 5.05448 0.166667 8ZM369.207 8.70711C369.598 8.31658 369.598 7.68342 369.207 7.29289L362.843 0.928932C362.453 0.538408 361.819 0.538408 361.429 0.928932C361.038 1.31946 361.038 1.95262 361.429 2.34315L367.086 8L361.429 13.6569C361.038 14.0474 361.038 14.6805 361.429 15.0711C361.819 15.4616 362.453 15.4616 362.843 15.0711L369.207 8.70711ZM5.5 8V9H368.5V8V7H5.5V8Z" fill="#6C6C6C"/>
</svg>