<svg width="47" height="35" viewBox="0 0 47 35" fill="none" xmlns="http://www.w3.org/2000/svg">
<rect x="0.5" y="0.775635" width="46" height="33" rx="2" fill="white" stroke="#D9D9D9"/>
<path fill-rule="evenodd" clip-rule="evenodd" d="M14.3557 23.3081H11.5084L9.37331 14.7148C9.27197 14.3195 9.05679 13.97 8.74027 13.8053C7.95036 13.3914 7.07993 13.062 6.13037 12.8959V12.565H10.7171C11.3502 12.565 11.8249 13.062 11.9041 13.6392L13.0119 19.8378L15.8578 12.565H18.626L14.3557 23.3081ZM20.2085 23.3081H17.5195L19.7338 12.565H22.4228L20.2085 23.3081ZM25.9018 15.5412C25.9809 14.9626 26.4557 14.6317 27.0096 14.6317C27.88 14.5487 28.8282 14.7148 29.6195 15.1273L30.0942 12.8142C29.303 12.4834 28.4325 12.3173 27.6426 12.3173C25.0327 12.3173 23.1336 13.8053 23.1336 15.8706C23.1336 17.4417 24.4788 18.2667 25.4284 18.7637C26.4557 19.2592 26.8513 19.5901 26.7722 20.0856C26.7722 20.8289 25.9809 21.1598 25.191 21.1598C24.2414 21.1598 23.2919 20.912 22.4228 20.4981L21.948 22.8126C22.8976 23.225 23.9249 23.3912 24.8745 23.3912C27.8009 23.4728 29.6195 21.9862 29.6195 19.7548C29.6195 16.9448 25.9018 16.7801 25.9018 15.5412ZM39.0304 23.3081L36.8953 12.565H34.6019C34.1271 12.565 33.6523 12.8959 33.4941 13.3914L29.5404 23.3081H32.3085L32.861 21.7384H36.2622L36.5788 23.3081H39.0304ZM34.9975 15.4581L35.7874 19.507H33.5732L34.9975 15.4581Z" fill="#172B85"/>
</svg>
